# xmcd
#
# Track frame offsets:
#       150
#       13558
#       26207
#       40550
#       57072
#       70410
#       82230
#       98018
#       107238
#       123337
#       140345
#       154255
#       166400
#       179671
#
# Disc length: 2565 seconds
#
# Revision: 0
# Processed by: cddbd v1.4PL0 Copyright (c) Steve Scherf et al.
# Submitted via: CD-DA_X-Tractor v0.23
#
DISCID=bc0a030e
DTITLE=Paprsky - Za svetlem
DYEAR=1999
DGENRE=Country
TTITLE0=At zni zvucny chvalozpev
TTITLE1=Mezi kapkami deste
TTITLE2=Pojd a naleznes
TTITLE3=Chrystus Pan
TTITLE4=Pritel
TTITLE5=Bohu Otci
TTITLE6=O Pane, vejdi
TTITLE7=Vzyvam jmeno Tve
TTITLE8=Plny rozporu
TTITLE9=Buh miluje nas
TTITLE10=Jsi velky muj Pan
TTITLE11=Bezedny je Bozi pohar
TTITLE12=Svet hluchych
TTITLE13=Jezis je Kral
EXTD=
EXTT0=
EXTT1=
EXTT2=
EXTT3=
EXTT4=
EXTT5=
EXTT6=
EXTT7=
EXTT8=
EXTT9=
EXTT10=
EXTT11=
EXTT12=
EXTT13=
PLAYORDER=
